<svg xmlns="http://www.w3.org/2000/svg" xmlns:xlink="http://www.w3.org/1999/xlink" width="512" height="512" x="0" y="0" viewBox="0 0 152 152" style="enable-background:new 0 0 512 512" xml:space="preserve" class=""><g><g data-name="Layer 2"><path d="M76 0a76 76 0 1 0 76 76A76 76 0 0 0 76 0zm19.26 68.8L94 79.39a2 2 0 0 1-2 1.78H81v31.4a1.42 1.42 0 0 1-1.4 1.43H68.4a1.42 1.42 0 0 1-1.4-1.44l.06-31.39h-8.33a2 2 0 0 1-2-2V68.59a2 2 0 0 1 2-2H67V56.33C67 44.46 74.07 38 84.4 38h8.47a2 2 0 0 1 2 2v8.91a2 2 0 0 1-2 2h-5.19C82.06 51 81 53.69 81 57.71v8.85h12.32a2 2 0 0 1 1.94 2.24z" data-name="01.facebook" fill="#ffffff" opacity="1" data-original="#000000" class=""></path></g></g></svg>